Coordinates
version=1
nRows=22
nColumns=24
inDegrees=yes

Units are S.I. units (second, meters, Newtons, ...)
Angles are in degrees.

endheader
time	pelvis_tilt	pelvis_list	pelvis_rotation	pelvis_tx	pelvis_ty	pelvis_tz	hip_flexion_r	hip_adduction_r	hip_rotation_r	knee_angle_r	ankle_angle_r	subtalar_angle_r	mtp_angle_r	hip_flexion_l	hip_adduction_l	hip_rotation_l	knee_angle_l	ankle_angle_l	subtalar_angle_l	mtp_angle_l	lumbar_extension	lumbar_bending	lumbar_rotation
      4.28000000	      5.30356453	     -4.13691152	     -5.07505063	     -0.78318716	      1.04024084	     -0.21894157	    -18.29916519	      4.82978941	     -6.10478356	    -18.05251845	      9.78229577	     -6.83908543	      0.00000000	     13.81373883	     -4.82134530	     -1.85804698	      0.67934262	     -0.36894706	    -16.07155834	      0.00000000	    -19.70928817	     -0.25344297	      3.45958331
      4.29000000	      5.48185149	     -3.64486546	     -5.07902575	     -0.76929732	      1.03933300	     -0.22093889	    -18.66560140	      3.92014521	     -6.99107172	    -18.99852764	      9.20433405	     -6.11445429	      0.00000000	     13.82850021	     -4.12523669	     -1.71802266	     -0.73291976	     -1.13295377	    -16.82681537	      0.00000000	    -19.52237076	     -0.70960744	      3.46651402
      4.30000000	      5.61060422	     -3.05426698	     -4.98847187	     -0.75523116	      1.03857427	     -0.22312564	    -18.90432224	      2.91324210	     -8.05490802	    -20.06328794	      8.46228665	     -5.35095980	      0.00000000	     13.88557533	     -3.30095146	     -1.46793404	     -2.15373739	     -2.18547736	    -17.75939787	      0.00000000	    -19.26414887	     -1.23338827	      3.33503466
      4.31000000	      5.74004406	     -2.36050118	     -4.80473628	     -0.74105524	      1.03807400	     -0.22541749	    -19.07807036	      1.82951957	     -9.16331978	    -21.21494775	      7.37309131	     -4.84468495	      0.00000000	     13.92946725	     -2.34535368	     -1.09333534	     -3.56408592	     -3.38960127	    -18.85156737	      0.00000000	    -18.99846170	     -1.85796652	      3.07526963
      4.32000000	      5.85114223	     -1.58359938	     -4.53282433	     -0.72684986	      1.03784419	     -0.22776178	    -19.14904135	      0.70459476	    -10.24980807	    -22.47593101	      5.82821608	     -4.74068430	      0.00000000	     13.99102074	     -1.28550609	     -0.66427927	     -4.98554188	     -4.56755175	    -19.95159429	      0.00000000	    -18.72341772	     -2.56644539	      2.72085740
      4.33000000	      5.93988994	     -0.73774392	     -4.18468141	     -0.71265978	      1.03787912	     -0.23010304	    -19.09592246	     -0.44687935	    -11.28854554	    -23.86930108	      3.76659484	     -5.08912220	      0.00000000	     14.07646955	     -0.14498834	     -0.29299242	     -6.43694670	     -5.46997553	    -20.84181243	      0.00000000	    -18.43614427	     -3.35504546	      2.30357617
      4.34000000	      5.98757325	      0.15375558	     -3.76843079	     -0.69851663	      1.03812833	     -0.23243241	    -18.87961868	     -1.60823956	    -12.25947408	    -25.42727799	      1.18327629	     -5.80897572	      0.00000000	     14.17712124	      1.04704915	     -0.00034033	     -7.88393488	     -5.92358162	    -21.42401565	      0.00000000	    -18.12684016	     -4.19852599	      1.81268342
      4.35000000	      5.98353273	      1.04270991	     -3.31266234	     -0.68448152	      1.03854414	     -0.23472314	    -18.47494460	     -2.73711033	    -13.08532152	    -27.15501665	     -1.97615047	     -6.99839791	      0.00000000	     14.24528472	      2.23730833	      0.29916149	     -9.22827011	     -6.10746376	    -21.90724806	      0.00000000	    -17.79426772	     -5.04629994	      1.33537576
      4.36000000	      5.90768038	      1.89747924	     -2.84678483	     -0.67060487	      1.03907837	     -0.23694351	    -17.84616507	     -3.80124318	    -13.66467591	    -29.05450117	     -5.68851794	     -8.62711819	      0.00000000	     14.26544179	      3.38279252	      0.56930510	    -10.40008916	     -5.99059801	    -22.24868786	      0.00000000	    -17.42647692	     -5.86708709	      0.89172780
      4.37000000	      5.75447168	      2.69932533	     -2.40954996	     -0.65697190	      1.03970840	     -0.23905933	    -16.96300203	     -4.79178464	    -13.93571784	    -31.13959735	     -9.82190368	    -10.59860800	      0.00000000	     14.22092140	      4.45198532	      0.77420421	    -11.34028534	     -5.60636350	    -22.43724764	      0.00000000	    -17.02790941	     -6.64271377	      0.50436736
      4.38000000	      5.52843187	      3.44760876	     -2.04060018	     -0.64365144	      1.04043039	     -0.24100940	    -15.80990663	     -5.70397632	    -13.82320624	    -33.41593279	    -14.14952405	    -12.75925492	      0.00000000	     14.09677725	      5.43315427	      0.90385996	    -12.00984028	     -4.99633844	    -22.45573246	      0.00000000	    -16.61252905	     -7.38385578	      0.18243357
      4.39000000	      5.25574004	      4.12858246	     -1.73980427	     -0.63072156	      1.04125367	     -0.24279557	    -14.40746404	     -6.52436085	    -13.39148864	    -35.87736258	    -18.44332169	    -14.99813752	      0.00000000	     13.89497902	      6.30848609	      0.91882661	    -12.43877477	     -4.29375058	    -22.36235633	      0.00000000	    -16.22208956	     -8.06656744	     -0.09347592
      4.40000000	      4.96029911	      4.75013553	     -1.55542090	     -0.61821302	      1.04219107	     -0.24432917	    -12.77135368	     -7.23998745	    -12.57931272	    -38.51122370	    -22.46706481	    -17.28527342	      0.00000000	     13.59681381	      7.08115957	      0.87352284	    -12.62829823	     -3.42642338	    -22.08978098	      0.00000000	    -15.87533816	     -8.71477794	     -0.28897064
      4.41000000	      4.67653360	      5.32481489	     -1.45982992	     -0.60615851	      1.04324739	     -0.24565207	    -10.95673232	     -7.86004485	    -11.53552727	    -41.28138332	    -26.09749477	    -19.60245508	      0.00000000	     13.21324704	      7.76937506	      0.71944582	    -12.64503900	     -2.58286699	    -21.73288625	      0.00000000	    -15.61949761	     -9.32497437	     -0.47871480
      4.42000000	      4.43038585	      5.84847875	     -1.45064238	     -0.59452668	      1.04442792	     -0.24675190	     -9.02519845	     -8.35991055	    -10.30929584	    -44.11839968	    -29.29612601	    -22.03187533	      0.00000000	     12.73301320	      8.37575175	      0.50617571	    -12.51657451	     -1.76722495	    -21.31784938	      0.00000000	    -15.47098483	     -9.89491054	     -0.66946394
      4.43000000	      4.24055224	      6.31476358	     -1.50294586	     -0.58328310	      1.04573648	     -0.24768035	     -7.04090483	     -8.72405391	     -8.98704290	    -46.94302074	    -32.05422947	    -24.62416277	      0.00000000	     12.15331361	      8.90650023	      0.27449146	    -12.27505780	     -1.01926742	    -20.89331691	      0.00000000	    -15.44151167	    -10.40333907	     -0.88070240
      4.44000000	      4.11449765	      6.71049838	     -1.58653132	     -0.57235646	      1.04717046	     -0.24848918	     -5.06723677	     -8.93240896	     -7.63899588	    -49.66648143	    -34.36174703	    -27.40910160	      0.00000000	     11.47450308	      9.35938060	      0.06963488	    -11.94641640	     -0.34254353	    -20.47124664	      0.00000000	    -15.52526334	    -10.82616300	     -1.13799908
      4.45000000	      4.04618893	      7.01598363	     -1.66991290	     -0.56168776	      1.04871973	     -0.24924992	     -3.14703213	     -8.97292220	     -6.33280476	    -52.21204509	    -36.19104167	    -30.33786964	      0.00000000	     10.71246645	      9.72382438	     -0.08354451	    -11.55845955	      0.28454549	    -20.08730463	      0.00000000	    -15.70518937	    -11.12920302	     -1.45502008
      4.46000000	      4.02021743	      7.21519868	     -1.72215661	     -0.55121248	      1.05036791	     -0.25002257	     -1.30884879	     -8.84439948	     -5.12670161	    -54.51652836	    -37.41597111	    -33.33514904	      0.00000000	      9.88542060	      9.98944360	     -0.14785217	    -11.12877357	      0.85028932	    -19.73085241	      0.00000000	    -15.95082269	    -11.28532503	     -1.82152759
      4.47000000	      4.01205365	      7.30188385	     -1.72717623	     -0.54087703	      1.05208257	     -0.25085571	      0.44778275	     -8.56389388	     -4.05548968	    -56.54333809	    -37.94315141	    -36.22655421	      0.00000000	      9.02190431	     10.15121092	     -0.11065999	    -10.67088754	      1.35512043	    -19.42047186	      0.00000000	    -16.22308691	    -11.28182973	     -2.22333835
      4.48000000	      4.00333467	      7.27525393	     -1.67569335	     -0.53064179	      1.05383302	     -0.25177170	      2.12722668	     -8.15434076	     -3.14338179	    -58.26895597	    -37.68064588	    -38.84108633	      0.00000000	      8.14628281	     10.20599069	      0.02912316	    -10.19919261	      1.80822388	    -19.15300300	      0.00000000	    -16.49258593	    -11.11785922	     -2.63833032
      4.49000000	      3.97213564	      7.15223402	     -1.56269890	     -0.52047353	      1.05557386	     -0.25278107	      3.75279491	     -7.65308098	     -2.39782442	    -59.69531595	    -36.60084262	    -41.00768977	      0.00000000	      7.28182478	     10.16859363	      0.28461667	     -9.71495000	      2.20493252	    -18.92772692	      0.00000000	    -16.72538399	    -10.81392358	     -3.04360250
